[IMG]http://www.starshare.ro/bitbucket/The%20Hole.jpg[/IMG]


[IMG]http://www.freeimagehosting.net/uploads/c41d5a01e4.png[/IMG]

[COLOR=\"DeepSkyBlue\"]Genre:Horror | Thriller
Language:English
IMDb:[url]http://www.imdb.com/title/tt1085779/[/url]
Source:DVD Rus/Audio-NeDiVx

[B]General[/B]
Complete name :The Hole 2009 DvDRip XviD Ac3 Feel-Free [Gaurav] ~TDA
Format : AVI
Format/Info : Audio Video Interleave
File size : 1.09 GiB
Duration : 1h 28mn
Overall bit rate : 1 757 Kbps
Video #0
Muxing mode : Packed bitstream
Codec ID : XVID
Codec ID/Hint : XviD
Duration : 1h 28mn
Bit rate : 1 299 Kbps
Width : 652 pixels
Height : 352 pixels
Display aspect ratio : 1.852
Frame rate : 25.000 fps
Resolution : 24 bits
Colorimetry : 4:2:0
Scan type : Progressive
Bits/(Pixel*Frame) : 0.226
Stream size : 825 MiB (74%)
Writing library : XviD 1.2.1 (UTC 2008-12-04)

[B]Audio #1[/B]
ID : 1
Format : AC-3
Format/Info : Audio Coding 3
Codec ID : 2000
Duration : 1h 28mn
Bit rate mode : Constant
Bit rate : 448 Kbps
Channel(s) : 6 channels
Channel positions : Front: L C R, Surround: L R, LFE
Sampling rate : 48.0 KHz
Stream size : 285 MiB (26%)
Alignment : Split accross interleaves
Interleave, duration : 40 ms (1.00 video frame)
Interleave, preload duration : 500 ms

[B]Plot:[/B]
A pair of brothers stumble upon a mysterious hole in their basement that leads to the darkest corridors of their fears and nightmares.[/COLOR]

[IMG]http://www.freeimagehosting.net/uploads/f7e49b02b6.png[/IMG]

[IMG]http://www.starshare.ro/bitbucket/The.Hole.2009.DvDRip.XviD.Ac3.Feel-Free.avi_snapshot_00.28.48_%5B2010.10.07_14.50.19%5D.jpg[/IMG]

[IMG]http://www.starshare.ro/bitbucket/The.Hole.2009.DvDRip.XviD.Ac3.Feel-Free.avi_snapshot_00.56.39_%5B2010.10.07_14.48.37%5D.jpg[/IMG]

[IMG]http://www.starshare.ro/bitbucket/The.Hole.2009.DvDRip.XviD.Ac3.Feel-Free.avi_snapshot_01.06.58_%5B2010.10.07_14.49.07%5D.jpg[/IMG]

[IMG]http://www.starshare.ro/bitbucket/The.Hole.2009.DvDRip.XviD.Ac3.Feel-Free.avi_snapshot_00.48.06_%5B2010.10.07_14.48.28%5D.jpg[/IMG]

[IMG]http://www.starshare.ro/bitbucket/The.Hole.2009.DvDRip.XviD.Ac3.Feel-Free.avi_snapshot_01.22.35_%5B2010.10.07_14.50.04%5D.jpg[/IMG]

[IMG]http://www.starshare.ro/bitbucket/The.Hole.2009.DvDRip.XviD.Ac3.Feel-Free.avi_snapshot_00.14.43_%5B2010.10.07_14.55.12%5D.jpg[/IMG]

[IMG]http://www.starshare.ro/bitbucket/The.Hole.2009.DvDRip.XviD.Ac3.Feel-Free.avi_snapshot_00.22.07_%5B2010.10.07_14.55.37%5D.jpg[/IMG]

[img]http://img97.imageshack.us/img97/5348/seedw.gif[/img]